# xmcd
#
# Track frame offsets: 
#        150
#        11071
#        26868
#        37106
#        49847
#        62152
#        76668
#        87763
#        98111
#        109209
#        123511
#        134214
#        146847
#        158852
#        171122
#        180600
#        196901
#        207603
#        223071
#        231828
#
# Disc length: 3243 seconds
#
# Revision: 0
# Processed by: cddbd v1.5.1PL0 Copyright (c) Steve Scherf et al.
# Submitted via: ExactAudioCopy v0.95b1
#
DISCID=2c0ca914
DTITLE=Various Artist - Country Roads Volume 2
DYEAR=1999
DGENRE=Country
TTITLE0=Roger Miller - King Of The Road
TTITLE1=The Everly Brothers - All I Have To Do Is Dream
TTITLE2=John Denver - The Eagle And The Hawk
TTITLE3=Billie Jo Spears - What I've Got In Mind
TTITLE4=Kenny Rogers - Reuben James
TTITLE5=Loretta Lynn - Coal Miner's Daughter (Live)
TTITLE6=Conway Twitty - It's Only Make Believe
TTITLE7=Ferlin Husky - Wings Of A Dove
TTITLE8=Stella Parton - Danger Of A Stranger
TTITLE9=Frankie Lane - Mule Train
TTITLE10=Hank Licklin - Please Help Me I'm Falling
TTITLE11=Charley Pride - Crystal Chandeliers
TTITLE12=Gene Simmons - Catahoula Cur Dogs
TTITLE13=Johnny Cash - I Walk The Line
TTITLE14=Donna Fargo - Sticks And Stone
TTITLE15=Willie Nelson - Georgia On My Mind
TTITLE16=Jerry Lee Lewis and Linda Gail Lewis - Jackson
TTITLE17=Ray Price - How Do I Hide From A Memory
TTITLE18=Sandy Posey - Born A Woman
TTITLE19=Ricky Nelson - Poor Little Fool
EXTD=
EXTT0=
EXTT1=
EXTT2=
EXTT3=
EXTT4=
EXTT5=
EXTT6=
EXTT7=
EXTT8=
EXTT9=
EXTT10=
EXTT11=
EXTT12=
EXTT13=
EXTT14=
EXTT15=
EXTT16=
EXTT17=
EXTT18=
EXTT19=
PLAYORDER=
